<?xml version="1.0" encoding="UTF-8" standalone="no"?>
<!-- Created with Inkscape (http://www.inkscape.org/) -->

<svg
   xmlns:dc="http://purl.org/dc/elements/1.1/"
   xmlns:cc="http://creativecommons.org/ns#"
   xmlns:rdf="http://www.w3.org/1999/02/22-rdf-syntax-ns#"
   xmlns:svg="http://www.w3.org/2000/svg"
   xmlns="http://www.w3.org/2000/svg"
   xmlns:sodipodi="http://sodipodi.sourceforge.net/DTD/sodipodi-0.dtd"
   xmlns:inkscape="http://www.inkscape.org/namespaces/inkscape"
   width="128.17616mm"
   height="51.688999mm"
   viewBox="0 0 128.17616 51.688999"
   version="1.1"
   id="svg8"
   inkscape:version="0.92.3 (2405546, 2018-03-11)"
   sodipodi:docname="logoCarnot.svg">
  <defs
     id="defs2" />
  <sodipodi:namedview
     id="base"
     pagecolor="#ffffff"
     bordercolor="#666666"
     borderopacity="1.0"
     inkscape:pageopacity="0.0"
     inkscape:pageshadow="2"
     inkscape:zoom="0.35"
     inkscape:cx="-1234.9202"
     inkscape:cy="966.25144"
     inkscape:document-units="mm"
     inkscape:current-layer="layer1"
     showgrid="false"
     fit-margin-top="0"
     fit-margin-left="0"
     fit-margin-right="0"
     fit-margin-bottom="0"
     inkscape:window-width="1920"
     inkscape:window-height="996"
     inkscape:window-x="-9"
     inkscape:window-y="-9"
     inkscape:window-maximized="1" />
  <metadata
     id="metadata5">
    <rdf:RDF>
      <cc:Work
         rdf:about="">
        <dc:format>image/svg+xml</dc:format>
        <dc:type
           rdf:resource="http://purl.org/dc/dcmitype/StillImage" />
        <dc:title></dc:title>
      </cc:Work>
    </rdf:RDF>
  </metadata>
  <g
     inkscape:label="Calque 1"
     inkscape:groupmode="layer"
     id="layer1"
     transform="translate(-432.57264,-352.79836)">
    <g
       transform="matrix(0.35277777,0,0,-0.35277777,432.57264,404.48736)"
       inkscape:label="ink_ext_XXXXXX"
       id="g18">
      <g
         transform="scale(0.1)"
         id="g20">
        <path
           inkscape:connector-curvature="0"
           id="path22"
           style="fill:#ffffff;fill-opacity:1;fill-rule:nonzero;stroke:none"
           d="M 0,0 H 3633.34 V 1465.2 H 0 Z" />
        <path
           inkscape:connector-curvature="0"
           id="path24"
           style="fill:#313370;fill-opacity:1;fill-rule:nonzero;stroke:none"
           d="M 3451.82,176.711 H 1492.56 V 564.066 H 3451.82 V 176.711" />
        <path
           inkscape:connector-curvature="0"
           id="path26"
           style="fill:#ffffff;fill-opacity:1;fill-rule:nonzero;stroke:none"
           d="m 1735.18,432.148 c -8.28,4.653 -22.21,13.274 -47.05,13.274 -36.46,0 -59.67,-29.5 -59.67,-76.242 0,-45.071 26.19,-75.559 60.67,-75.559 26.5,0 42.09,9.938 47.38,12.258 l 1.99,-48.379 c -9.28,-2.98 -28.5,-8.301 -58.01,-8.301 -63.3,0 -107.69,47.41 -107.69,120.653 0,84.839 56.99,118.648 104.06,118.648 34.45,0 52.03,-7.617 60.98,-11.27 l -2.66,-45.082" />
        <path
           inkscape:connector-curvature="0"
           id="path28"
           style="fill:#ffffff;fill-opacity:1;fill-rule:nonzero;stroke:none"
           d="m 1777.97,484.516 h 133.55 V 444.09 h -81.18 v -51.699 h 77.22 v -40.43 h -77.22 v -58.34 h 85.17 v -40.43 h -137.54 v 231.325" />
        <path
           inkscape:connector-curvature="0"
           id="path30"
           style="fill:#ffffff;fill-opacity:1;fill-rule:nonzero;stroke:none"
           d="m 2044.8,440.102 h -0.66 l -27.52,-96.114 h 52.05 z m 34.48,-135.211 h -72.6 l -15.9,-51.7 h -52.36 l 76.89,231.325 h 59.65 l 74.24,-231.325 h -55.68 l -14.24,51.7" />
        <path
           inkscape:connector-curvature="0"
           id="path32"
           style="fill:#ffffff;fill-opacity:1;fill-rule:nonzero;stroke:none"
           d="m 2275.86,484.516 h 54.34 V 294.949 h 76.56 v -41.758 h -130.9 v 231.325" />
        <path
           inkscape:connector-curvature="0"
           id="path34"
           style="fill:#ffffff;fill-opacity:1;fill-rule:nonzero;stroke:none"
           d="m 2443.57,484.516 h 54.36 V 253.191 h -54.36 v 231.325" />
        <path
           inkscape:connector-curvature="0"
           id="path36"
           style="fill:#ffffff;fill-opacity:1;fill-rule:nonzero;stroke:none"
           d="m 2675.92,437.469 c -12.93,6.621 -31.15,11.929 -45.74,11.929 -17.56,0 -30.82,-7.968 -30.82,-25.199 0,-42.09 91.15,-22.527 91.15,-104.719 0,-43.75 -34.81,-70.281 -80.88,-70.281 -28.17,0 -52.36,6.641 -62.31,9.61 l 2.99,45.082 c 16.23,-6.289 30.49,-14.243 50.71,-14.243 17.22,0 33.8,8.622 33.8,27.5 0,44.75 -91.13,22.872 -91.13,105.391 0,6.961 2.64,65.961 80.2,65.961 21.21,0 34.47,-3.652 54.35,-7.949 l -2.32,-43.082" />
        <path
           inkscape:connector-curvature="0"
           id="path38"
           style="fill:#ffffff;fill-opacity:1;fill-rule:nonzero;stroke:none"
           d="m 2770.08,442.762 h -50.39 v 41.754 h 155.11 v -41.754 h -50.37 V 253.191 h -54.35 v 189.571" />
        <path
           inkscape:connector-curvature="0"
           id="path40"
           style="fill:#313370;fill-opacity:1;fill-rule:nonzero;stroke:none"
           d="m 168.32,181.191 h 1153.96 v 1121.14 H 168.32 Z" />
        <path
           inkscape:connector-curvature="0"
           id="path42"
           style="fill:#3792d7;fill-opacity:1;fill-rule:nonzero;stroke:none"
           d="m 649.871,181.191 h 672.41 v 653.395 h -672.41 z" />
        <path
           inkscape:connector-curvature="0"
           id="path44"
           style="fill:#dce1ed;fill-opacity:1;fill-rule:nonzero;stroke:none"
           d="m 194.199,387.898 c -5.625,0 -16.523,0.293 -25.879,0.84 v 273.153 c 9.903,-0.391 20.703,-0.86 25.879,-0.86 350.344,0 635.395,277.188 635.395,617.719 0,5.47 -0.449,15.34 -0.84,23.58 h 281.716 c 0.12,-8.01 0.47,-17.79 0.47,-23.58 0,-161.61 -44.55,-313.34 -122.315,-444.164 H 649.871 V 505.977 C 515.555,430.879 359.934,387.898 194.199,387.898" />
        <path
           inkscape:connector-curvature="0"
           id="path46"
           style="fill:#e1f0fa;fill-opacity:1;fill-rule:nonzero;stroke:none"
           d="M 649.871,505.977 V 834.586 H 988.625 C 907.551,698.203 790.367,584.527 649.871,505.977" />
        <path
           inkscape:connector-curvature="0"
           id="path48"
           style="fill:#ffffff;fill-opacity:1;fill-rule:nonzero;stroke:none"
           d="m 1322.28,1095.79 c -12.11,0.39 -25.12,0.7 -31.17,0.7 -505.422,0 -916.661,-399.638 -916.661,-890.779 0,-4.731 0.391,-15.051 0.625,-24.52 h 280.989 c -0.172,9.758 -0.333,20.098 -0.333,24.52 0,340.426 284.977,617.508 635.38,617.508 6.19,0 19.3,-0.449 31.17,-0.977 v 273.548" />
        <path
           inkscape:connector-curvature="0"
           id="path50"
           style="fill:#3792d7;fill-opacity:1;fill-rule:nonzero;stroke:none"
           d="m 1769.05,917.621 -22.78,-16.98 c -12.57,15.898 -27.65,27.957 -45.27,36.16 -17.6,8.203 -36.95,12.316 -58.03,12.316 -23.04,0 -44.37,-5.383 -64.02,-16.133 -19.65,-10.754 -34.86,-25.195 -45.66,-43.32 -10.8,-18.137 -16.2,-38.527 -16.2,-61.172 0,-34.23 12.08,-62.793 36.24,-85.683 24.16,-22.911 54.62,-34.356 91.4,-34.356 40.47,0 74.32,15.391 101.54,46.172 l 22.78,-16.777 c -14.4,-17.832 -32.37,-31.602 -53.91,-41.328 -21.54,-9.727 -45.58,-14.61 -72.17,-14.61 -50.54,0 -90.41,16.348 -119.61,49.063 -24.47,27.605 -36.71,60.937 -36.71,100 0,41.101 14.82,75.672 44.49,103.73 29.65,28.055 66.79,42.078 111.44,42.078 26.98,0 51.33,-5.183 73.05,-15.547 21.74,-10.371 39.55,-24.91 53.42,-43.613" />
        <path
           inkscape:connector-curvature="0"
           id="path52"
           style="fill:#3792d7;fill-opacity:1;fill-rule:nonzero;stroke:none"
           d="m 1769.05,917.621 -2.07,2.774 -22.77,-16.985 2.06,-2.769 2.71,2.144 c -12.88,16.285 -28.41,28.723 -46.52,37.149 -18.08,8.429 -37.96,12.64 -59.49,12.636 -23.58,0.008 -45.53,-5.523 -65.68,-16.554 -20.13,-11.008 -35.86,-25.918 -46.97,-44.582 -11.14,-18.68 -16.69,-39.75 -16.68,-62.942 -0.04,-35.039 12.49,-64.73 37.31,-88.191 24.79,-23.547 56.3,-35.332 93.78,-35.305 41.35,-0.047 76.38,15.891 104.13,47.34 l -2.59,2.289 -2.05,-2.781 22.78,-16.781 2.05,2.785 -2.69,2.172 c -14.06,-17.415 -31.56,-30.829 -52.64,-40.352 -21.06,-9.504 -44.58,-14.301 -70.75,-14.305 -49.82,0.043 -88.48,15.985 -117.03,47.91 l 0.01,-0.007 c -23.91,27.007 -35.82,59.359 -35.85,97.707 0.04,40.269 14.39,73.715 43.41,101.218 29.03,27.43 65.14,41.106 109.07,41.133 26.54,0 50.35,-5.09 71.56,-15.207 21.27,-10.152 38.59,-24.304 52.13,-42.554 l 2.78,2.058 -2.07,2.774 2.07,-2.774 2.77,2.059 c -14.19,19.156 -32.49,34.086 -54.7,44.675 -22.23,10.606 -47.12,15.887 -74.54,15.883 -45.36,0.032 -83.55,-14.343 -113.82,-43.027 -30.31,-28.609 -45.61,-64.305 -45.57,-106.238 -0.03,-39.782 12.55,-74.09 37.59,-102.293 l 0.01,-0.008 c 29.85,-33.504 70.92,-50.262 122.18,-50.219 27.01,-0.004 51.56,4.969 73.59,14.914 22.01,9.93 40.45,24.055 55.18,42.309 l 2.27,2.812 -28.23,20.793 -2.09,-2.367 c -26.7,-30.113 -59.37,-44.961 -98.96,-45.008 -36.07,0.032 -65.5,11.133 -89.03,33.41 -23.5,22.321 -35.11,49.758 -35.15,83.176 0.01,22.102 5.24,41.813 15.71,59.403 10.48,17.585 25.19,31.562 44.35,42.058 19.15,10.473 39.85,15.703 62.36,15.707 20.63,-0.004 39.45,-4.015 56.57,-11.988 17.12,-7.981 31.75,-19.664 44.02,-35.176 l 2.09,-2.633 28.23,21.047 -2.06,2.77 -2.77,-2.059" />
        <path
           inkscape:connector-curvature="0"
           id="path54"
           style="fill:#3792d7;fill-opacity:1;fill-rule:nonzero;stroke:none"
           d="M 1983.59,910.074 1934.1,808.453 h 98.77 z m 3.66,59.649 134.72,-280.743 h -31.19 l -45.43,92.372 H 1920.9 l -45,-92.372 h -32.2 l 136.48,280.743 h 7.07" />
        <path
           inkscape:connector-curvature="0"
           id="path56"
           style="fill:#3792d7;fill-opacity:1;fill-rule:nonzero;stroke:none"
           d="m 1983.59,910.074 -3.1,1.512 -51.92,-106.59 h 109.82 l -54.79,112.984 -3.11,-6.394 3.1,-1.512 -3.11,-1.508 46.87,-96.66 h -87.72 l 47.07,96.653 -3.11,1.515 -3.11,-1.508 z m 3.66,59.649 -3.12,-1.496 132.35,-275.789 h -23.55 l -45.43,92.371 h -128.76 l -45,-92.371 h -24.52 l 133.12,273.828 h 4.91 v 3.457 l -3.12,-1.496 3.12,1.496 v 3.457 h -7.07 -2.17 L 1838.17,685.523 h 39.89 l 45,92.375 h 120.14 l 45.43,-92.375 h 38.83 L 1989.42,973.18 h -2.17 v -3.457" />
        <path
           inkscape:connector-curvature="0"
           id="path58"
           style="fill:#3792d7;fill-opacity:1;fill-rule:nonzero;stroke:none"
           d="m 2253.48,942.242 v -95.429 l 49.74,-0.383 c 19.28,0 33.54,1.777 42.8,5.343 9.23,3.563 16.46,9.258 21.64,17.079 5.17,7.832 7.77,16.574 7.77,26.25 0,9.414 -2.64,17.968 -7.87,25.664 -5.26,7.707 -12.13,13.203 -20.67,16.515 -8.51,3.309 -22.67,4.961 -42.48,4.961 z m -28.87,27.481 h 57.54 c 32.07,0 53.81,-1.27 65.19,-3.821 17.15,-3.828 31.1,-12.011 41.82,-24.558 10.74,-12.551 16.11,-27.989 16.11,-46.34 0,-15.293 -3.71,-28.731 -11.09,-40.32 -7.4,-11.594 -17.97,-20.352 -31.72,-26.27 -13.75,-5.93 -32.73,-8.957 -56.95,-9.082 L 2409.39,688.98 h -35.7 L 2269.8,819.332 h -16.32 V 688.98 h -28.87 v 280.743" />
        <path
           inkscape:connector-curvature="0"
           id="path60"
           style="fill:#3792d7;fill-opacity:1;fill-rule:nonzero;stroke:none"
           d="m 2253.48,942.242 h -3.46 v -98.859 l 53.19,-0.406 h 0.01 c 19.5,0.015 34.04,1.746 44.04,5.57 9.83,3.777 17.72,9.973 23.28,18.398 5.54,8.371 8.36,17.864 8.35,28.157 0.01,10.062 -2.86,19.378 -8.47,27.609 l -0.01,0.004 c -5.6,8.238 -13.1,14.246 -22.27,17.789 -9.33,3.594 -23.71,5.172 -43.73,5.191 h -54.39 v -3.453 h 3.46 v -3.457 h 50.93 c 19.6,0.024 33.54,-1.699 41.23,-4.726 7.91,-3.082 14.16,-8.067 19.06,-15.239 v 0.004 c 4.86,-7.164 7.26,-14.953 7.27,-23.722 -0.01,-9.059 -2.39,-17.051 -7.2,-24.344 -4.79,-7.219 -11.35,-12.41 -20,-15.762 -8.51,-3.301 -22.49,-5.125 -41.55,-5.109 h 0.03 l -46.32,0.355 v 92 h -3.45 v -3.457 z m -28.87,27.481 v -3.457 h 57.54 c 31.94,0.011 53.66,-1.301 64.44,-3.735 16.52,-3.703 29.69,-11.461 39.94,-23.433 v -0.004 c 10.18,-11.918 15.27,-26.403 15.29,-44.09 -0.01,-14.738 -3.55,-27.453 -10.56,-38.465 l 0.01,0.004 c -7.03,-10.988 -16.97,-19.262 -30.18,-24.953 -13.07,-5.656 -31.66,-8.688 -55.6,-8.805 l -7.13,-0.035 103.86,-130.312 h -26.86 l -103.89,130.347 h -21.45 V 692.438 h -21.95 v 277.285 h -3.46 v -3.457 3.457 h -3.46 v -284.2 h 35.78 v 130.352 h 11.21 l 103.89,-130.352 h 44.54 l -108.36,135.961 -2.7,-2.152 0.02,-3.457 c 24.49,0.137 43.87,3.16 58.3,9.363 14.29,6.141 25.49,15.391 33.26,27.586 l 0.1,0.153 -0.1,-0.153 c 7.77,12.176 11.65,26.336 11.64,42.18 0.02,19.016 -5.64,35.406 -16.94,48.586 v 0 c -11.2,13.125 -25.91,21.734 -43.69,25.687 -12,2.664 -33.76,3.887 -65.95,3.903 h -61 v -3.457 h 3.46" />
        <path
           inkscape:connector-curvature="0"
           id="path62"
           style="fill:#3792d7;fill-opacity:1;fill-rule:nonzero;stroke:none"
           d="m 2545.76,688.98 v 280.743 h 6.29 l 192.27,-215.215 v 215.215 h 28.47 V 688.98 h -6.48 l -190.7,212.586 V 688.98 h -29.85" />
        <path
           inkscape:connector-curvature="0"
           id="path64"
           style="fill:#3792d7;fill-opacity:1;fill-rule:nonzero;stroke:none"
           d="m 2545.76,688.98 h 3.46 v 277.286 h 1.28 l 197.27,-220.817 v 220.817 h 21.57 V 692.438 h -1.49 l -195.7,218.156 V 692.438 h -26.39 v -3.458 h 3.46 -3.46 v -3.457 h 33.3 v 207.016 l 185.71,-207.016 h 8.02 3.46 V 973.18 h -35.39 V 763.563 L 2553.6,973.18 h -7.84 -3.45 V 685.523 h 3.45 v 3.457" />
        <path
           inkscape:connector-curvature="0"
           id="path66"
           style="fill:#3792d7;fill-opacity:1;fill-rule:nonzero;stroke:none"
           d="m 3060.37,949.496 c -21.39,0 -41.64,-5.418 -60.78,-16.238 -19.16,-10.82 -34.1,-25.403 -44.86,-43.742 -10.75,-18.328 -16.12,-38.77 -16.12,-61.309 0,-33.367 11.9,-61.543 35.69,-84.519 23.81,-22.989 52.5,-34.473 86.07,-34.473 22.42,0 43.17,5.273 62.25,15.84 19.08,10.586 33.96,25.039 44.65,43.367 10.7,18.332 16.03,38.711 16.03,61.125 0,22.273 -5.33,42.43 -16.03,60.449 -10.69,18.016 -25.73,32.442 -45.14,43.262 -19.42,10.82 -40,16.238 -61.76,16.238 z m -1.29,27.285 c 43.77,0 80.37,-14.187 109.87,-42.558 29.47,-28.368 44.21,-63.301 44.21,-104.774 0,-41.105 -14.7,-75.957 -44.12,-104.59 -29.41,-28.632 -65.27,-42.949 -107.59,-42.949 -42.84,0 -79.01,14.258 -108.48,42.754 -29.47,28.516 -44.22,62.988 -44.22,103.445 0,26.973 6.72,51.973 20.16,75.012 13.41,23.027 31.72,41.063 54.92,54.102 23.18,13.047 48.26,19.558 75.25,19.558" />
        <path
           inkscape:connector-curvature="0"
           id="path68"
           style="fill:#3792d7;fill-opacity:1;fill-rule:nonzero;stroke:none"
           d="m 3060.37,949.496 v 3.457 c -21.97,0.008 -42.87,-5.59 -62.48,-16.687 -19.65,-11.09 -35.09,-26.141 -46.14,-45 -11.07,-18.864 -16.6,-39.973 -16.59,-63.059 -0.04,-34.191 12.32,-63.469 36.74,-87.008 24.37,-23.578 54.11,-35.472 88.47,-35.441 22.96,-0.004 44.34,5.422 63.92,16.273 19.59,10.856 34.98,25.793 45.96,44.653 11.02,18.859 16.51,39.906 16.51,62.863 0,22.824 -5.49,43.656 -16.52,62.215 l -0.13,0.211 0.13,-0.215 c -10.99,18.551 -26.54,33.437 -46.43,44.519 -19.89,11.09 -41.11,16.684 -63.44,16.676 v -3.457 -3.453 c 21.18,-0.008 41.14,-5.254 60.08,-15.805 18.93,-10.562 33.47,-24.523 43.84,-42.004 v -0.004 c 10.38,-17.476 15.55,-36.957 15.55,-58.683 0,-21.867 -5.17,-41.582 -15.56,-59.379 -10.38,-17.805 -24.76,-31.777 -43.34,-42.094 -18.58,-10.277 -38.69,-15.398 -60.57,-15.402 -32.79,0.031 -60.43,11.101 -83.67,33.5 -23.16,22.422 -34.59,49.492 -34.63,82.035 0.01,21.992 5.22,41.766 15.64,59.563 10.46,17.82 24.91,31.925 43.58,42.48 18.67,10.543 38.28,15.785 59.08,15.793 z m -1.29,27.285 v -3.457 c 43.03,-0.027 78.58,-13.844 107.47,-41.59 28.83,-27.808 43.12,-61.632 43.16,-102.285 -0.04,-40.277 -14.28,-74.031 -43.08,-102.113 -28.83,-28.027 -63.64,-41.938 -105.18,-41.973 -42.07,0.035 -77.19,13.899 -106.08,41.785 -28.86,27.973 -43.13,61.348 -43.16,100.961 0,26.399 6.55,50.739 19.68,73.27 13.13,22.523 30.94,40.074 53.63,52.832 22.69,12.758 47.13,19.109 73.56,19.113 v 3.457 3.457 c -27.55,0.008 -53.27,-6.672 -76.95,-20.004 -23.71,-13.316 -42.51,-31.839 -56.21,-55.375 -13.74,-23.539 -20.63,-49.203 -20.63,-76.75 -0.03,-41.304 15.19,-76.875 45.28,-105.929 30.06,-29.11 67.28,-43.758 110.88,-43.727 43.1,-0.031 80.01,14.692 110,43.93 30.04,29.183 45.21,65.137 45.17,107.066 0.04,42.293 -15.17,78.336 -45.28,107.266 -30.1,28.992 -67.75,43.555 -112.26,43.523 v -3.457" />
        <path
           inkscape:connector-curvature="0"
           id="path70"
           style="fill:#3792d7;fill-opacity:1;fill-rule:nonzero;stroke:none"
           d="m 3310.78,942.242 v 27.481 h 158.28 v -27.481 h -64.41 V 688.98 h -29.45 v 253.262 h -64.42" />
        <path
           inkscape:connector-curvature="0"
           id="path72"
           style="fill:#3792d7;fill-opacity:1;fill-rule:nonzero;stroke:none"
           d="m 3310.78,942.242 h 3.46 v 24.024 h 151.37 v -20.571 h -64.42 V 692.438 h -22.54 v 253.257 h -67.87 v -3.453 h 3.46 -3.46 v -3.457 h 60.96 V 685.523 h 36.36 v 253.262 h 64.42 v 34.395 h -165.19 v -34.395 h 3.45 v 3.457" />
        <path
           inkscape:connector-curvature="0"
           id="path74"
           style="fill:#3792d7;fill-opacity:1;fill-rule:nonzero;stroke:none"
           d="m 1525.38,1305 h 25.25 v -245.65 h -25.25 V 1305" />
        <path
           inkscape:connector-curvature="0"
           id="path76"
           style="fill:#3792d7;fill-opacity:1;fill-rule:nonzero;stroke:none"
           d="m 1525.38,1305 v -3.46 h 21.79 V 1062.8 h -18.34 V 1305 h -3.45 v -3.46 3.46 h -3.46 v -249.11 h 32.17 v 252.56 h -32.17 V 1305 h 3.46" />
        <path
           inkscape:connector-curvature="0"
           id="path78"
           style="fill:#3792d7;fill-opacity:1;fill-rule:nonzero;stroke:none"
           d="M 1708.33,1059.35 V 1305 h 5.48 l 168.25,-188.31 V 1305 h 24.89 v -245.65 h -5.66 l -166.85,186.01 v -186.01 h -26.11" />
        <path
           inkscape:connector-curvature="0"
           id="path80"
           style="fill:#3792d7;fill-opacity:1;fill-rule:nonzero;stroke:none"
           d="m 1708.33,1059.35 h 3.45 v 242.19 h 0.49 l 173.24,-193.9 v 193.9 h 17.99 V 1062.8 h -0.67 l -171.85,191.58 V 1062.8 h -22.65 v -3.45 h 3.45 -3.45 v -3.46 h 29.56 v 180.44 l 161.86,-180.44 h 7.2 3.46 v 252.56 h -31.81 v -182.7 l -163.24,182.7 h -7.03 -3.46 v -252.56 h 3.46 v 3.46" />
        <path
           inkscape:connector-curvature="0"
           id="path82"
           style="fill:#3792d7;fill-opacity:1;fill-rule:nonzero;stroke:none"
           d="m 2041.95,1105.11 21.47,12.52 c 15.13,-27.06 32.6,-40.58 52.42,-40.58 8.48,0 16.43,1.91 23.89,5.76 7.44,3.84 13.1,8.99 17.01,15.44 3.89,6.46 5.84,13.31 5.84,20.55 0,8.23 -2.87,16.31 -8.6,24.21 -7.91,10.91 -22.34,24.05 -43.3,39.41 -21.07,15.47 -34.2,26.66 -39.35,33.56 -8.93,11.58 -13.4,24.1 -13.4,37.58 0,10.68 2.64,20.43 7.89,29.22 5.27,8.8 12.7,15.73 22.27,20.79 9.57,5.07 19.96,7.6 31.19,7.6 11.91,0 23.04,-2.87 33.42,-8.6 10.37,-5.73 21.32,-16.28 32.91,-31.65 l -20.63,-15.19 c -9.51,12.24 -17.62,20.32 -24.32,24.22 -6.7,3.89 -14,5.84 -21.91,5.84 -10.2,0 -18.52,-3.01 -25,-9.02 -6.46,-6.01 -9.71,-13.41 -9.71,-22.22 0,-5.34 1.16,-10.51 3.44,-15.52 2.29,-5.01 6.47,-10.47 12.54,-16.37 3.32,-3.11 14.22,-11.3 32.66,-24.55 21.87,-15.69 36.89,-29.66 45.02,-41.91 8.14,-12.24 12.2,-24.55 12.2,-36.9 0,-17.82 -6.97,-33.29 -20.88,-46.43 -13.92,-13.14 -30.84,-19.71 -50.78,-19.71 -15.35,0 -29.28,3.99 -41.76,11.95 -12.48,7.96 -24,21.29 -34.53,40" />
        <path
           inkscape:connector-curvature="0"
           id="path84"
           style="fill:#3792d7;fill-opacity:1;fill-rule:nonzero;stroke:none"
           d="m 2041.95,1105.11 1.74,-2.99 21.47,12.52 -1.74,2.99 -3.02,-1.69 c 7.73,-13.8 16.12,-24.32 25.36,-31.48 9.21,-7.16 19.37,-10.88 30.08,-10.87 9,0 17.54,2.05 25.47,6.15 7.92,4.08 14.14,9.69 18.38,16.72 l 0.01,0.01 c 4.18,6.94 6.34,14.47 6.33,22.33 0.01,9.05 -3.19,17.89 -9.25,26.24 v 0 c -8.31,11.43 -22.95,24.68 -44.05,40.17 v -0.01 c -20.96,15.36 -34.04,26.63 -38.63,32.85 l -0.02,0.02 -0.01,0.02 c -8.53,11.09 -12.67,22.77 -12.68,35.47 0,10.12 2.47,19.18 7.4,27.44 h -0.01 c 4.96,8.25 11.85,14.71 20.92,19.52 v 0 c 9.08,4.8 18.86,7.19 29.58,7.19 11.36,0 21.86,-2.71 31.74,-8.16 9.71,-5.35 20.42,-15.56 31.83,-30.71 l 2.76,2.08 -2.05,2.79 -20.63,-15.2 2.05,-2.78 2.73,2.12 c -9.67,12.41 -17.9,20.74 -25.31,25.08 -7.21,4.21 -15.17,6.32 -23.65,6.31 -10.86,0.03 -20.2,-3.28 -27.35,-9.93 v -0.01 c -7.11,-6.55 -10.85,-15.09 -10.81,-24.75 -0.01,-5.84 1.27,-11.53 3.75,-16.96 2.56,-5.59 7.01,-11.32 13.27,-17.41 l 0.02,-0.02 0.02,-0.02 c 1.91,-1.78 5.46,-4.58 10.95,-8.71 5.48,-4.12 12.83,-9.49 22.06,-16.13 v 0 c 21.7,-15.55 36.45,-29.37 44.16,-41.01 v 0 c 7.84,-11.81 11.62,-23.41 11.63,-34.99 -0.04,-16.9 -6.48,-31.28 -19.8,-43.92 v 0.01 c -13.34,-12.55 -29.22,-18.74 -48.41,-18.77 -14.75,0.01 -27.96,3.8 -39.9,11.4 -11.81,7.53 -23.03,20.39 -33.38,38.78 l -3.01,-1.69 1.74,-2.99 -1.74,2.99 -3.01,-1.7 c 10.71,-19.03 22.54,-32.82 35.69,-41.21 13.02,-8.32 27.66,-12.5 43.61,-12.49 20.7,-0.03 38.64,6.92 53.15,20.65 h 0.01 c 14.49,13.63 21.99,30.21 21.96,48.94 0,13.12 -4.34,26.13 -12.79,38.81 v 0 c -8.54,12.85 -23.83,26.97 -45.88,42.81 v 0 c -9.2,6.62 -16.52,11.96 -21.94,16.03 -5.39,4.05 -8.95,6.89 -10.37,8.23 l -2.36,-2.52 2.41,2.48 c -5.89,5.7 -9.8,10.9 -11.81,15.32 -2.09,4.59 -3.12,9.25 -3.12,14.09 0.04,7.95 2.78,14.22 8.6,19.69 v 0 c 5.82,5.36 13.12,8.06 22.65,8.09 7.34,-0.01 13.99,-1.78 20.18,-5.37 5.98,-3.45 13.96,-11.27 23.32,-23.35 l 2.07,-2.66 26.15,19.26 -2.1,2.79 c -11.77,15.6 -22.97,26.48 -34,32.6 -10.86,6.01 -22.63,9.03 -35.09,9.03 -11.75,0 -22.75,-2.67 -32.81,-8 v 0 c -10.07,-5.32 -18.02,-12.73 -23.61,-22.08 l -0.1,-0.15 0.09,0.15 c -5.57,-9.32 -8.38,-19.74 -8.38,-30.99 -0.01,-14.25 4.79,-27.61 14.12,-39.69 l 2.74,2.11 -2.77,-2.07 c 5.72,-7.59 18.89,-18.68 40.08,-34.28 v 0 c 20.81,-15.23 35.04,-28.27 42.55,-38.65 v 0 c 5.38,-7.46 7.92,-14.77 7.93,-22.18 -0.01,-6.61 -1.76,-12.79 -5.34,-18.76 v 0 c -3.56,-5.88 -8.68,-10.56 -15.64,-14.16 -6.99,-3.59 -14.34,-5.37 -22.3,-5.37 -9.11,0.01 -17.6,3.05 -25.85,9.42 -8.24,6.37 -16.15,16.13 -23.56,29.39 l -1.71,3.07 -27.45,-16.01 1.67,-2.97 3.01,1.7" />
        <path
           inkscape:connector-curvature="0"
           id="path86"
           style="fill:#3792d7;fill-opacity:1;fill-rule:nonzero;stroke:none"
           d="M 2317.83,1280.94 V 1305 h 138.52 v -24.06 h -56.37 v -221.59 h -25.78 v 221.59 h -56.37" />
        <path
           inkscape:connector-curvature="0"
           id="path88"
           style="fill:#3792d7;fill-opacity:1;fill-rule:nonzero;stroke:none"
           d="m 2317.83,1280.94 h 3.46 v 20.6 h 131.6 v -17.14 h -56.37 v -221.6 h -18.87 l 0.01,221.6 h -59.83 v -3.46 h 3.46 -3.46 v -3.45 h 52.91 v -221.6 h 32.7 v 221.6 h 56.36 v 30.96 h -145.42 v -30.96 h 3.45 v 3.45" />
        <path
           inkscape:connector-curvature="0"
           id="path90"
           style="fill:#3792d7;fill-opacity:1;fill-rule:nonzero;stroke:none"
           d="M 2588.75,1305 H 2614 v -245.65 h -25.25 V 1305" />
        <path
           inkscape:connector-curvature="0"
           id="path92"
           style="fill:#3792d7;fill-opacity:1;fill-rule:nonzero;stroke:none"
           d="m 2588.75,1305 v -3.46 h 21.8 V 1062.8 h -18.34 V 1305 h -3.46 v -3.46 3.46 h -3.46 v -249.11 h 32.17 v 252.56 h -32.17 V 1305 h 3.46" />
        <path
           inkscape:connector-curvature="0"
           id="path94"
           style="fill:#3792d7;fill-opacity:1;fill-rule:nonzero;stroke:none"
           d="M 2746.43,1280.94 V 1305 h 138.51 v -24.06 h -56.37 v -221.59 h -25.78 v 221.59 h -56.36" />
        <path
           inkscape:connector-curvature="0"
           id="path96"
           style="fill:#3792d7;fill-opacity:1;fill-rule:nonzero;stroke:none"
           d="m 2746.43,1280.94 h 3.45 v 20.6 h 131.6 v -17.14 h -56.36 v -221.6 h -18.87 v 221.6 h -59.82 v -3.46 h 3.45 -3.45 v -3.45 h 52.91 v -221.6 h 32.69 v 221.6 h 56.37 v 30.96 h -145.43 v -30.96 h 3.46 v 3.45" />
        <path
           inkscape:connector-curvature="0"
           id="path98"
           style="fill:#3792d7;fill-opacity:1;fill-rule:nonzero;stroke:none"
           d="m 3021.82,1305 h 25.25 v -148.29 c 0,-17.6 0.35,-28.57 1.04,-32.9 1.25,-9.69 4.18,-17.78 8.77,-24.3 4.57,-6.51 11.62,-11.97 21.13,-16.37 9.51,-4.4 19.06,-6.6 28.69,-6.6 8.36,0 16.39,1.73 24.06,5.18 7.68,3.46 14.08,8.24 19.24,14.37 5.16,6.12 8.95,13.52 11.35,22.2 1.72,6.24 2.58,19.05 2.58,38.42 V 1305 h 25.25 v -148.29 c 0,-21.93 -2.21,-39.67 -6.6,-53.19 -4.42,-13.53 -13.24,-25.31 -26.47,-35.33 -13.24,-10.01 -29.25,-15.03 -48.02,-15.03 -20.41,0 -37.88,4.74 -52.43,14.2 -14.55,9.46 -24.27,21.99 -29.21,37.57 -3.09,9.58 -4.63,26.84 -4.63,51.78 V 1305" />
        <path
           inkscape:connector-curvature="0"
           id="path100"
           style="fill:#3792d7;fill-opacity:1;fill-rule:nonzero;stroke:none"
           d="m 3021.82,1305 v -3.46 h 21.79 v -144.83 c 0.02,-17.7 0.33,-28.55 1.08,-33.44 l 3.42,0.54 -3.43,-0.44 c 1.3,-10.12 4.4,-18.79 9.37,-25.85 v 0.01 c 5.01,-7.15 12.61,-12.95 22.51,-17.52 9.91,-4.59 19.98,-6.92 30.14,-6.92 8.84,0 17.38,1.84 25.48,5.48 v 0 c 8.11,3.64 14.97,8.76 20.46,15.29 5.51,6.53 9.52,14.42 12.04,23.51 v 0.01 c 1.9,7.01 2.68,19.8 2.7,39.33 v 144.83 h 18.34 v -144.83 c 0.01,-21.7 -2.2,-39.12 -6.43,-52.12 v 0 c -4.18,-12.78 -12.49,-23.95 -25.26,-33.64 -12.61,-9.53 -27.78,-14.31 -45.94,-14.33 -19.89,0.01 -36.62,4.59 -50.54,13.64 -13.97,9.11 -23.09,20.88 -27.81,35.72 l -0.01,0.01 c -2.86,8.8 -4.48,25.95 -4.46,50.72 V 1305 h -3.45 v -3.46 3.46 h -3.46 v -148.29 c 0.02,-25.12 1.49,-42.48 4.8,-52.84 l -0.01,0.02 c 5.16,-16.34 15.49,-29.6 30.63,-39.43 15.17,-9.87 33.37,-14.76 54.31,-14.75 19.37,-0.01 36.24,5.22 50.11,15.73 13.67,10.35 23.01,22.73 27.66,37.01 v 0 c 4.56,14.04 6.77,32.09 6.78,54.26 v 151.74 h -32.17 v -151.74 c 0.02,-19.23 -0.91,-32.04 -2.45,-37.5 v 0 c -2.29,-8.27 -5.86,-15.19 -10.66,-20.9 -4.82,-5.72 -10.77,-10.17 -18.02,-13.44 h 0.01 c -7.25,-3.25 -14.77,-4.87 -22.65,-4.87 -9.1,0 -18.13,2.07 -27.24,6.28 -9.13,4.22 -15.63,9.34 -19.76,15.22 l -0.06,0.09 0.06,-0.09 c -4.21,5.97 -6.97,13.5 -8.17,22.75 v 0.05 l -0.01,0.05 c -0.62,3.78 -1,14.86 -0.99,32.36 v 151.74 h -32.17 V 1305 h 3.46" />
        <path
           inkscape:connector-curvature="0"
           id="path102"
           style="fill:#3792d7;fill-opacity:1;fill-rule:nonzero;stroke:none"
           d="M 3325.88,1280.94 V 1305 h 138.51 v -24.06 h -56.36 v -221.59 h -25.78 v 221.59 h -56.37" />
        <path
           inkscape:connector-curvature="0"
           id="path104"
           style="fill:#3792d7;fill-opacity:1;fill-rule:nonzero;stroke:none"
           d="m 3325.88,1280.94 h 3.45 v 20.6 h 131.61 v -17.14 h -56.37 v -221.6 h -18.87 v 221.6 h -59.82 v -3.46 h 3.45 -3.45 v -3.45 h 52.91 v -221.6 h 32.69 v 221.6 h 56.37 v 30.96 h -145.43 v -30.96 h 3.46 v 3.45" />
      </g>
    </g>
  </g>
</svg>
